HIERARCHY
ROOT Hips
{
	OFFSET 0.000000 0.000000 0.000000
	CHANNELS 6 Xposition Yposition Zposition Xrotation Yrotation Zrotation
	JOINT LeftUpLeg_virtual
	{
		OFFSET 0.000000 0.000000 0.000000
		CHANNELS 3 Xrotation Yrotation Zrotation
		JOINT LeftUpLeg
		{
			OFFSET 13.026900 -6.336304 -1.092800
			CHANNELS 3 Xrotation Yrotation Zrotation
			JOINT LeftLeg
			{
				OFFSET 0.524474 -46.096886 9.782700
				CHANNELS 3 Xrotation Yrotation Zrotation
				JOINT LeftFoot
				{
					OFFSET -0.524474 -53.427422 -12.948200
					CHANNELS 3 Xrotation Yrotation Zrotation
					JOINT LeftToeBase
					{
						OFFSET 0.192200 -14.009700 16.364100
						CHANNELS 3 Xrotation Yrotation Zrotation
						JOINT LeftToe_End
						{
							OFFSET -1.784700 -0.561700 9.474800
							CHANNELS 3 Xrotation Yrotation Zrotation
							End Site
							{
								OFFSET 0 0 0
							}
						}
					}
				}
			}
		}
	}
	JOINT RightUpLeg_virtual
	{
		OFFSET 0.000000 0.000000 0.000000
		CHANNELS 3 Xrotation Yrotation Zrotation
		JOINT RightUpLeg
		{
			OFFSET -12.883000 -6.336304 -1.092800
			CHANNELS 3 Xrotation Yrotation Zrotation
			JOINT RightLeg
			{
				OFFSET -0.524587 -46.096825 9.782800
				CHANNELS 3 Xrotation Yrotation Zrotation
				JOINT RightFoot
				{
					OFFSET 0.524587 -53.427383 -12.948300
					CHANNELS 3 Xrotation Yrotation Zrotation
					JOINT RightToeBase
					{
						OFFSET -0.192200 -14.009700 16.364100
						CHANNELS 3 Xrotation Yrotation Zrotation
						JOINT RightToe_End
						{
							OFFSET 1.784700 -0.561700 9.474800
							CHANNELS 3 Xrotation Yrotation Zrotation
							End Site
							{
								OFFSET 0 0 0
							}
						}
					}
				}
			}
		}
	}
	JOINT Spine_virtual
	{
		OFFSET 0.000000 0.000000 0.000000
		CHANNELS 3 Xrotation Yrotation Zrotation
		JOINT Spine
		{
			OFFSET 0.072000 7.257294 -0.789700
			CHANNELS 3 Xrotation Yrotation Zrotation
			JOINT Spine1
			{
				OFFSET 0.000000 12.508769 -0.658067
				CHANNELS 3 Xrotation Yrotation Zrotation
				JOINT Spine1_split
				{
					OFFSET 0.000000 12.508769 -0.658067
					CHANNELS 3 Xrotation Yrotation Zrotation
					JOINT Spine2
					{
						OFFSET 0.000000 12.508769 -0.658067
						CHANNELS 3 Xrotation Yrotation Zrotation
						JOINT Neck_virtual
						{
							OFFSET 0.000000 0.000000 0.000000
							CHANNELS 3 Xrotation Yrotation Zrotation
							JOINT Neck
							{
								OFFSET 0.000000 14.033295 7.520400
								CHANNELS 3 Xrotation Yrotation Zrotation
								JOINT Head
								{
									OFFSET 0.000000 8.198502 5.703100
									CHANNELS 3 Xrotation Yrotation Zrotation
									JOINT HeadTop_End
									{
										OFFSET 0.000000 17.760803 13.332701
										CHANNELS 3 Xrotation Yrotation Zrotation
										End Site
										{
											OFFSET 0 0 0
										}
									}
								}
							}
						}
						JOINT LeftShoulder_virtual
						{
							OFFSET 0.000000 0.000000 0.000000
							CHANNELS 3 Xrotation Yrotation Zrotation
							JOINT LeftShoulder
							{
								OFFSET 6.292450 5.785301 -0.669000
								CHANNELS 3 Xrotation Yrotation Zrotation
								JOINT LeftShoulder_split
								{
									OFFSET 6.292450 5.785301 -0.669000
									CHANNELS 3 Xrotation Yrotation Zrotation
									JOINT LeftArm
									{
										OFFSET 13.907140 -6.093903 1.965100
										CHANNELS 3 Xrotation Yrotation Zrotation
										JOINT LeftForeArm
										{
											OFFSET 34.140198 0.000000 0.000000
											CHANNELS 3 Xrotation Yrotation Zrotation
											JOINT LeftHand
											{
												OFFSET 40.960209 0.000000 0.000000
												CHANNELS 3 Xrotation Yrotation Zrotation
												End Site
												{
													OFFSET 0 0 0
												}
											}
										}
									}
								}
							}
						}
						JOINT RightShoulder_virtual
						{
							OFFSET 0.000000 0.000000 0.000000
							CHANNELS 3 Xrotation Yrotation Zrotation
							JOINT RightShoulder
							{
								OFFSET -6.292450 5.785301 -0.669000
								CHANNELS 3 Xrotation Yrotation Zrotation
								JOINT RightShoulder_split
								{
									OFFSET -6.292450 5.785301 -0.669000
									CHANNELS 3 Xrotation Yrotation Zrotation
									JOINT RightArm
									{
										OFFSET -13.907140 -6.093903 1.965100
										CHANNELS 3 Xrotation Yrotation Zrotation
										JOINT RightForeArm
										{
											OFFSET -34.140198 0.000000 0.000000
											CHANNELS 3 Xrotation Yrotation Zrotation
											JOINT RightHand
											{
												OFFSET -40.960209 0.000000 0.000000
												CHANNELS 3 Xrotation Yrotation Zrotation
												End Site
												{
													OFFSET 0 0 0
												}
											}
										}
									}
								}
							}
						}
					}
				}
			}
		}
	}
}
MOTION
Frames: 10
Frame Time: 0.03333333
-6.615349 115.065727 -10.070095 0.000000 0.000000 0.000000 -10.448418 -1.513489 4.073214 -8.344725 7.291455 -1.986060 23.301308 2.406042 -1.355341 -8.681391 5.103436 2.460285 -1.465856 0.270832 -0.204128 0.000000 0.000000 0.000000 -9.595091 -1.631844 3.899614 -15.457333 -11.210892 -14.114034 29.796137 0.517471 -1.200330 -2.557397 -15.371800 3.631802 -2.247493 0.008395 -0.338713 0.000000 0.000000 0.000000 -9.787937 -1.272332 4.106407 6.694149 1.628837 -2.984518 14.405006 2.748102 -1.587867 0.494630 -1.718212 0.250281 0.000000 0.000000 0.000000 14.077741 2.500315 -2.122118 29.884174 -1.855784 -5.864175 0.994973 -1.593403 -5.277379 0.000000 0.000000 0.000000 14.951480 3.083088 -2.982823 -3.098901 -23.157376 -26.338562 -1.846560 -0.508185 -3.858835 -0.709621 -43.149235 -29.505089 9.682873 -24.844750 0.318415 0.000000 0.000000 0.000000 14.489727 3.111913 -2.450511 0.272441 23.120264 23.263746 -0.000470 0.798407 2.020814 -9.325647 20.311897 39.440914 35.764373 42.280992 -15.876922 0.000000 0.000000 0.000000 
-5.723264 115.880341 -9.706173 0.000000 0.000000 0.000000 -11.165624 -2.343313 4.672887 -5.442660 7.991236 -2.830037 20.792470 2.236189 -1.467847 -8.401313 4.764303 2.327909 -0.745638 0.342494 -0.294699 0.000000 0.000000 0.000000 -10.414330 -1.633884 4.480220 -13.232471 -11.832259 -15.117080 27.569478 0.688865 -1.290438 -2.208227 -14.298181 3.848773 -2.136235 -0.062198 -0.294501 0.000000 0.000000 0.000000 -11.184086 -1.265138 4.603547 6.586220 1.543921 -3.749187 13.016424 2.840521 -1.984073 0.867552 -1.748791 0.225592 0.000000 0.000000 0.000000 12.601240 2.594003 -2.342955 28.336211 -1.087861 -5.887782 0.473649 -0.326688 -5.510174 0.000000 0.000000 0.000000 13.541753 3.159733 -3.126688 -1.838339 -22.104277 -22.905463 -2.234054 -0.394749 -3.423009 -0.945148 -40.184844 -32.260585 8.476243 -23.984068 0.147500 0.000000 0.000000 0.000000 13.212543 3.177598 -2.640634 0.852572 21.498435 22.023615 0.200536 0.717311 2.332034 -4.480798 22.733595 40.382705 33.634218 44.659475 -15.030764 0.000000 0.000000 0.000000 
-5.024133 116.304665 -9.234531 0.000000 0.000000 0.000000 -11.300668 -2.922121 5.029802 -3.562818 8.415840 -3.542798 18.933382 2.146317 -1.459855 -8.236080 4.391579 2.268289 -0.336975 0.378618 -0.330226 0.000000 0.000000 0.000000 -10.722845 -1.546713 4.870749 -11.741353 -12.123375 -15.923534 25.992971 0.903238 -1.304284 -2.059072 -13.294651 4.237049 -2.538523 -0.113835 -0.376108 0.000000 0.000000 0.000000 -11.790819 -1.013881 4.884941 6.383112 1.371286 -4.444085 11.611357 2.891551 -2.342223 1.062427 -1.801375 0.051458 0.000000 0.000000 0.000000 11.204171 2.637491 -2.565503 26.721114 -0.467879 -5.208252 -0.366877 0.644894 -5.410535 0.000000 0.000000 0.000000 12.129769 3.184386 -3.199717 -0.450792 -21.044877 -18.708549 -2.714964 -0.348800 -3.032770 -0.891634 -35.636184 -34.999737 8.853765 -24.625936 0.612241 0.000000 0.000000 0.000000 11.847231 3.165049 -2.817324 1.526877 19.707879 19.882921 0.336116 0.738000 2.503043 -0.473773 23.691515 41.842671 32.495745 46.368546 -15.100537 0.000000 0.000000 0.000000 
-4.564540 116.405815 -8.794086 0.000000 0.000000 0.000000 -11.116511 -3.220826 5.123605 -2.705178 8.724490 -4.017299 17.831624 2.140159 -1.383992 -8.032287 4.019900 2.391892 -0.306424 0.376392 -0.282531 0.000000 0.000000 0.000000 -10.621841 -1.554578 5.060751 -10.987443 -12.084316 -16.580769 25.051119 1.160687 -1.233112 -1.828553 -12.426495 4.814507 -3.310894 -0.149038 -0.549753 0.000000 0.000000 0.000000 -11.809249 -0.797411 4.915458 6.023061 1.162315 -4.936800 10.247435 2.880815 -2.614321 1.433115 -1.892839 -0.022745 0.000000 0.000000 0.000000 9.918590 2.609681 -2.753352 24.872540 0.000924 -4.105345 -1.582441 1.349816 -5.026832 0.000000 0.000000 0.000000 10.833378 3.114244 -3.238086 0.893578 -19.901660 -14.445039 -3.289789 -0.596663 -3.065577 -0.023396 -29.849761 -37.602555 10.703194 -25.557900 1.477020 0.000000 0.000000 0.000000 10.486045 3.082799 -2.961752 2.179483 17.875013 17.216831 0.004739 0.978928 2.745993 1.916518 22.765306 43.969244 32.500748 46.962448 -16.003879 0.000000 0.000000 0.000000 
-4.298770 116.330437 -8.458050 0.000000 0.000000 0.000000 -10.828543 -3.405560 5.011507 -2.545403 8.995072 -4.309099 17.346599 2.280268 -1.269869 -7.924054 3.807577 2.844166 -0.376345 0.355982 -0.235422 0.000000 0.000000 0.000000 -10.304797 -1.813034 5.072370 -10.750918 -11.855580 -17.066838 24.593066 1.350870 -1.098712 -1.454855 -11.870870 5.319104 -4.006595 -0.175571 -0.724422 0.000000 0.000000 0.000000 -11.427071 -0.886176 4.733857 5.536255 0.960770 -5.182219 8.959178 2.812894 -2.765705 1.629356 -1.665087 0.239208 0.000000 0.000000 0.000000 8.795013 2.518847 -2.871540 22.817673 0.351123 -2.992797 -2.977455 1.754129 -4.484583 0.000000 0.000000 0.000000 9.682161 2.972316 -3.258489 2.024556 -18.645559 -10.864932 -4.102513 -0.911923 -3.199491 0.905371 -23.456705 -40.310089 13.750798 -25.198861 2.433193 0.000000 0.000000 0.000000 9.217761 2.964095 -3.039619 2.712119 16.178292 14.609571 -0.592589 1.383698 3.123863 2.515110 20.023195 46.730430 33.405233 46.301244 -17.269874 0.000000 0.000000 0.000000 
-4.136802 116.219696 -8.182262 0.000000 0.000000 0.000000 -10.538929 -3.445970 4.787222 -2.778619 9.241942 -4.499451 17.136209 2.530161 -1.124555 -7.990322 3.780400 3.477440 -0.252436 0.348631 -0.262329 0.000000 0.000000 0.000000 -9.925318 -2.257365 4.958158 -10.708943 -11.565684 -17.337967 24.297971 1.377729 -0.914841 -1.178644 -11.696461 5.470582 -4.286731 -0.192441 -0.826444 0.000000 0.000000 0.000000 -10.946467 -1.298993 4.454221 4.914267 0.781377 -5.199220 7.784409 2.706423 -2.794220 1.812547 -1.548174 0.520184 0.000000 0.000000 0.000000 7.811018 2.389051 -2.880093 20.625197 0.571947 -2.243074 -4.182450 1.928550 -3.943774 0.000000 0.000000 0.000000 8.699021 2.789660 -3.213237 2.877896 -17.340628 -8.223059 -4.998833 -1.230684 -3.409784 0.659122 -16.775269 -43.401276 17.139101 -23.117682 2.990849 0.000000 0.000000 0.000000 8.117163 2.817987 -3.022416 3.081913 14.787105 12.518554 -1.380360 1.669338 3.771197 1.671713 15.919883 49.933928 34.810271 44.588595 -18.359509 0.000000 0.000000 0.000000 
-4.057466 116.187744 -7.954731 0.000000 0.000000 0.000000 -10.311628 -3.470677 4.562699 -2.907886 9.469011 -4.613634 16.881127 2.722094 -0.968987 -8.205034 3.787944 3.944137 -0.122485 0.366282 -0.323491 0.000000 0.000000 0.000000 -9.626617 -2.711619 4.817719 -10.563416 -11.376376 -17.397634 23.925038 1.224048 -0.731013 -1.106213 -11.833570 5.246200 -4.222099 -0.188639 -0.838080 0.000000 0.000000 0.000000 -10.509878 -1.916939 4.176666 4.254743 0.634347 -5.081591 6.773543 2.573423 -2.740030 2.059095 -1.395997 0.831243 0.000000 0.000000 0.000000 6.949148 2.254338 -2.779681 18.423484 0.694967 -2.023156 -4.911166 1.969558 -3.543335 0.000000 0.000000 0.000000 7.829289 2.603310 -3.095043 3.417709 -15.981295 -6.663115 -5.904994 -1.572694 -3.242563 -0.889361 -9.827066 -46.468041 20.406940 -20.095742 2.906299 0.000000 0.000000 0.000000 7.238658 2.659051 -2.923543 3.327513 13.752490 11.218318 -1.948980 2.058020 4.025608 0.112969 11.269045 53.063774 36.374985 42.300570 -18.884143 0.000000 0.000000 0.000000 
-3.993937 116.253578 -7.643566 0.000000 0.000000 0.000000 -10.171250 -3.611786 4.412549 -2.747742 9.617932 -4.667536 16.578114 2.771186 -0.797249 -8.392554 3.725804 4.089387 -0.153675 0.400486 -0.401671 0.000000 0.000000 0.000000 -9.483208 -3.117618 4.704292 -10.213131 -11.321337 -17.313570 23.450418 0.965989 -0.579004 -1.142742 -12.169952 4.895825 -4.154596 -0.165515 -0.779195 0.000000 0.000000 0.000000 -10.223611 -2.519497 3.996837 3.641448 0.511630 -4.935524 5.948336 2.444100 -2.658535 1.923114 -0.881133 0.941775 0.000000 0.000000 0.000000 6.221692 2.139737 -2.604138 16.324321 0.699675 -2.304938 -4.961786 1.810392 -3.316481 0.000000 0.000000 0.000000 7.057964 2.460559 -2.912553 3.718093 -14.661353 -5.956006 -6.408207 -2.221941 -2.735628 -3.572874 -2.941465 -49.090028 23.221304 -17.192539 2.239914 0.000000 0.000000 0.000000 6.576626 2.504581 -2.777250 3.447815 13.034704 10.682710 -2.304914 2.364327 3.671418 -1.455204 6.652650 55.696358 37.737823 39.798652 -18.654674 0.000000 0.000000 0.000000 
-3.932347 116.369362 -7.242954 0.000000 0.000000 0.000000 -10.127799 -3.855209 4.385466 -2.273479 9.767690 -4.672325 16.424546 2.676991 -0.615913 -8.457936 3.476437 3.997078 -0.302026 0.427984 -0.479237 0.000000 0.000000 0.000000 -9.526992 -3.437162 4.666661 -9.749912 -11.361659 -17.194885 22.916994 0.780205 -0.484359 -1.161087 -12.440508 4.793804 -4.268389 -0.126138 -0.706947 0.000000 0.000000 0.000000 -10.102302 -2.873111 3.966156 3.132944 0.422487 -4.821012 5.321571 2.320073 -2.591532 1.826967 -0.425451 0.687993 0.000000 0.000000 0.000000 5.614736 2.036517 -2.407532 14.347168 0.595906 -2.838664 -4.408702 1.371533 -3.162157 0.000000 0.000000 0.000000 6.414969 2.359626 -2.700027 3.865797 -13.507600 -5.654590 -6.491513 -3.009101 -2.321466 -6.348992 3.261809 -51.088913 25.395798 -15.329839 1.266349 0.000000 0.000000 0.000000 6.094017 2.357778 -2.617744 3.432382 12.555610 10.653857 -2.465608 2.308321 2.591237 -2.611422 2.671358 57.661536 38.656822 37.531469 -17.802895 0.000000 0.000000 0.000000 
-3.911171 116.430244 -6.687160 0.000000 0.000000 0.000000 -10.183827 -4.287871 4.472880 -1.538633 10.018770 -4.644806 16.458275 2.507716 -0.443109 -8.483779 3.052008 3.842536 -0.457818 0.438795 -0.552416 0.000000 0.000000 0.000000 -9.698963 -3.717076 4.695795 -9.314014 -11.428906 -17.141207 22.472343 0.754418 -0.471859 -1.148615 -12.531892 5.056792 -4.515806 -0.085101 -0.643945 0.000000 0.000000 0.000000 -10.106583 -2.952976 4.062241 2.822262 0.381317 -4.741703 4.868204 2.206707 -2.571483 1.536920 0.123045 0.346183 0.000000 0.000000 0.000000 5.175511 1.945540 -2.257279 12.469331 0.417539 -3.338289 -3.530705 0.573917 -2.931246 0.000000 0.000000 0.000000 5.898569 2.302887 -2.533043 3.934460 -12.674131 -5.500634 -6.054063 -3.828442 -1.952379 -7.925112 8.073059 -52.461799 27.078124 -14.862169 0.292784 0.000000 0.000000 0.000000 5.752534 2.233171 -2.487888 3.306655 12.172580 10.834589 -2.521066 2.240654 1.238011 -3.042854 -0.324139 59.039383 39.071172 35.756450 -16.594471 0.000000 0.000000 0.000000 
